<?xml version="1.0" encoding="utf-8"?>
<!-- Generator: Adobe Illustrator 26.0.1, SVG Export Plug-In . SVG Version: 6.00 Build 0)  -->
<svg version="1.1" xmlns="http://www.w3.org/2000/svg" xmlns:xlink="http://www.w3.org/1999/xlink" x="0px" y="0px"
	 viewBox="0 0 500 500" style="enable-background:new 0 0 500 500;" xml:space="preserve">
<style type="text/css">
	.st0{display:none;}
	.st1{display:inline;}
	.st2{fill:#FBC938;}
	.st3{font-family:'MyriadPro-Regular';}
	.st4{font-size:12px;}
	.st5{fill:url(#SVGID_1_);}
	.st6{fill:#1B2C5A;}
	.st7{fill:#FFFFFF;}
	.st8{font-family:'ArialRoundedMTBold';}
	.st9{font-size:51.325px;}
</style>
<g id="BACKGROUND">
	<g class="st0">
		<g class="st1">
			<rect x="-3.4" width="503.4" height="500"/>
		</g>
	</g>
	<text transform="matrix(1 0 0 1 180.7021 271.1064)" class="st2 st3 st4">Empowering Your Business with Software Excellence</text>
</g>
<g id="OBJECTS">
	<g id="Nuevo_símbolo">
	</g>
	<g id="Nuevo_símbolo_1">
	</g>
	<g id="Nuevo_símbolo_2">
	</g>
	<g id="Nuevo_símbolo_3">
	</g>
	<g>
		<g>
			<g>
				<path class="st2" d="M122.5,215.7c-6.9-4.5-14.2-0.3-15.3,5.9c-0.2,0.6-0.1,4.4-0.1,4.4c0,0.7,0.4,4.9-3.6,8.9
					c-4,4-8.6,3.3-8.6,3.3v0c-1.7-0.1-3.5,0.6-4.8,1.9c-3.5,3.5-2.1,10.2,4.2,11.3c0.3,0,0.5,0,0.8,0c4.2-0.8,6.1-3.8,6-6.9l0,0
					c0,0-0.7-4.5,3.3-8.6c4-4,8.2-3.6,8.9-3.6c0,0,2.7,0.3,3.2,0.3c7.1,0,12.4-7.8,7.6-15.3C123.7,216.7,123.2,216.1,122.5,215.7z"
					/>
				<path class="st2" d="M135.4,250.3c1.5-5.3-2.6-9-6.7-8.3c-0.4,0-2.6,0.8-2.6,0.8c-0.4,0.1-2.8,1.3-6.1-0.3
					c-3.3-1.6-3.8-4.4-3.8-4.4l0,0c-0.6-1.9-2.5-3.3-5.3-2.8c0,0,0,0,0,0c-3.8,2-3.3,6.3-0.3,7.7c1.1,0.5,2.2,0.5,3.3,0.1l0,0
					c0,0,2.6-1.4,5.8,0.2c3.3,1.6,3.9,4.1,4,4.6c0,0,0.4,1.7,0.5,2c1.6,4.3,7.6,5.8,11,1C135.2,250.7,135.3,250.5,135.4,250.3z"/>
				<path class="st2" d="M111.7,248c3.4,4.4-1.6,9.4-6,6C102.3,249.6,107.3,244.7,111.7,248z"/>
			</g>
		</g>
	</g>
	<g>
		<g>
			<g>
				<g>
					
						<radialGradient id="SVGID_1_" cx="26.6149" cy="346.6569" r="66.2399" gradientTransform="matrix(0 1 -1 0 453.7363 210.2891)" gradientUnits="userSpaceOnUse">
						<stop  offset="2.737430e-02" style="stop-color:#1B2C5A"/>
						<stop  offset="0.5765" style="stop-color:#ACB7CC"/>
						<stop  offset="1" style="stop-color:#1B2C5A"/>
					</radialGradient>
					<path class="st5" d="M74.8,294.2c-3-2.2-5.8-4.5-8.4-7.2C53,273.6,45.6,255.9,45.6,237c0-18.9,7.3-36.6,20.6-50
						c13.3-13.4,31.1-20.8,50-20.8c18.9,0,36.6,7.3,50,20.6c2.9,2.9,2.9,7.6,0,10.5c-2.9,2.9-7.6,2.9-10.5,0
						c-10.6-10.5-24.6-16.3-39.5-16.3c-14.9,0-28.9,5.9-39.5,16.4c-10.5,10.6-16.3,24.6-16.3,39.5c0,14.9,5.9,28.9,16.4,39.5
						c10.6,10.5,24.6,16.3,39.5,16.3c14.9,0,28.9-5.9,39.5-16.4c2.9-2.9,7.6-2.9,10.5,0c2.9,2.9,2.9,7.6,0,10.5
						c-13.3,13.4-31.1,20.8-50,20.8C101.3,307.6,86.8,302.9,74.8,294.2z"/>
				</g>
			</g>
		</g>
	</g>
	<g>
		<g>
			<path class="st6" d="M143.4,276.3c2-1.5,4-3.1,5.8-4.9c19-18.9,19-49.7,0.1-68.7c-9.1-9.2-21.3-14.3-34.3-14.3
				c-13,0-25.2,5-34.4,14.2c-3.5,3.5-3.5,9.2,0,12.7c3.5,3.5,9.2,3.5,12.7,0c5.8-5.8,13.5-9,21.7-8.9c8.2,0,15.9,3.2,21.6,9
				c11.9,12,11.9,31.4-0.1,43.3c-5.8,5.8-13.5,9-21.7,8.9c-8.2,0-15.9-3.2-21.6-9c-3.5-3.5-9.1-3.5-12.7,0c-3.5,3.5-3.5,9.2,0,12.7
				c9.2,9.2,21.3,14.2,34.3,14.3C125.3,285.6,135.2,282.4,143.4,276.3z"/>
		</g>
	</g>
	<text transform="matrix(1 0 0 1 168.5454 255.146)" class="st7 st8 st9">En-logics</text>
</g>
<g id="DESIGNED_BY_FREEPIK">
</g>
</svg>
